<svg width="18" height="24" viewBox="0 0 18 24" fill="none" xmlns="http://www.w3.org/2000/svg">
<path d="M17.5018 8.82648C17.5018 4.12638 13.692 0.310059 8.99999 0.310059C4.30795 0.310059 0.498169 4.12638 0.498169 8.82648C0.498169 12.683 3.18506 16.1378 6.87453 17.1019L7.59639 19.0301C5.59124 19.1506 2.22259 19.6327 2.22259 21.3199C2.22259 23.6097 8.31824 23.6901 9.04009 23.6901C9.76194 23.6901 15.8576 23.6097 15.8576 21.3199C15.8576 19.5925 12.4488 19.1506 10.4437 19.0301L11.1254 17.1421C14.8149 16.1779 17.5018 12.7232 17.5018 8.82648ZM11.7671 8.82648C11.7671 10.353 10.5239 11.5983 8.99999 11.5983C7.47608 11.5983 6.23289 10.353 6.23289 8.82648C6.23289 7.29996 7.47608 6.05463 8.99999 6.05463C10.5239 6.05463 11.7671 7.29996 11.7671 8.82648ZM14.4139 21.3199C14.0129 21.7216 12.0478 22.3242 8.99999 22.3242C5.99227 22.3242 4.02723 21.7216 3.58609 21.3199C3.94702 20.9584 5.59124 20.4361 8.07762 20.3558L8.51875 21.5208C8.59896 21.7216 8.75937 21.8422 8.99999 21.8422C9.2005 21.8422 9.40102 21.7216 9.48122 21.5208L9.88225 20.3558C12.4087 20.4361 14.0129 20.9584 14.4139 21.3199Z" fill="white"/>
</svg>
