<svg width="17" height="21" viewBox="0 0 17 21" fill="none" xmlns="http://www.w3.org/2000/svg">
<path fill-rule="evenodd" clip-rule="evenodd" d="M8.5 20.2777C8.5 20.2777 16.5 14.9444 16.5 8.72217C16.5 6.60044 15.6571 4.56561 14.1569 3.06531C12.6566 1.56502 10.6217 0.722168 8.5 0.722168C6.37827 0.722168 4.34344 1.56502 2.84315 3.06531C1.34285 4.56561 0.5 6.60044 0.5 8.72217C0.5 14.9444 8.5 20.2777 8.5 20.2777ZM11.1676 8.72236C11.1676 10.1951 9.97364 11.389 8.50088 11.389C7.02812 11.389 5.83421 10.1951 5.83421 8.72236C5.83421 7.2496 7.02812 6.05569 8.50088 6.05569C9.97364 6.05569 11.1676 7.2496 11.1676 8.72236Z" fill="#FF1D6C"/>
</svg>
