<svg width="24" height="24" viewBox="0 0 24 24" fill="none" xmlns="http://www.w3.org/2000/svg">
<path d="M19.5902 18.8006L19.5899 18.8003L17.4894 16.6039C18.5988 15.2274 19.267 13.4511 19.267 11.5169C19.267 7.17433 15.8923 3.61429 11.7089 3.61429C7.52548 3.61429 4.15 7.17428 4.15 11.5169C4.15 15.8595 7.52544 19.4204 11.7089 19.4204C13.3801 19.4204 14.9252 18.8502 16.1759 17.889L18.2995 20.1079L18.3 20.1084C18.4754 20.291 18.709 20.3857 18.9447 20.3857C19.1801 20.3857 19.4157 20.2916 19.5917 20.1051C19.9374 19.742 19.9353 19.1622 19.5902 18.8006ZM5.96031 11.5169C5.96031 8.17123 8.55457 5.47767 11.7089 5.47767C14.8624 5.47767 17.4567 8.1712 17.4567 11.5169C17.4567 14.8627 14.8623 17.557 11.7089 17.557C8.55463 17.557 5.96031 14.8627 5.96031 11.5169Z" fill="white" stroke="white" stroke-width="0.7"/>
</svg>
